<?xml version="1.0" encoding="UTF-8" standalone="no"?>
<!-- Generator: Adobe Illustrator 24.3.0, SVG Export Plug-In . SVG Version: 6.00 Build 0)  -->

<svg
   version="1.1"
   x="0px"
   y="0px"
   viewBox="0 0 1000 1000"
   style="enable-background:new 0 0 1000 1000;"
   xml:space="preserve"
   id="svg15"
   sodipodi:docname="logo.svg"
   inkscape:version="1.4.3 (fcd0343856, 2026-01-01)"
   inkscape:export-filename="logo.png"
   inkscape:export-xdpi="96"
   inkscape:export-ydpi="96"
   xmlns:inkscape="http://www.inkscape.org/namespaces/inkscape"
   xmlns:sodipodi="http://sodipodi.sourceforge.net/DTD/sodipodi-0.dtd"
   xmlns="http://www.w3.org/2000/svg"
   xmlns:svg="http://www.w3.org/2000/svg"><defs
   id="defs15" /><sodipodi:namedview
   id="namedview15"
   pagecolor="#ffffff"
   bordercolor="#000000"
   borderopacity="0.25"
   inkscape:showpageshadow="2"
   inkscape:pageopacity="0.0"
   inkscape:pagecheckerboard="0"
   inkscape:deskcolor="#d1d1d1"
   inkscape:zoom="0.5398421"
   inkscape:cx="141.7081"
   inkscape:cy="471.43415"
   inkscape:window-width="1191"
   inkscape:window-height="1011"
   inkscape:window-x="20"
   inkscape:window-y="20"
   inkscape:window-maximized="0"
   inkscape:current-layer="svg15" />
<style
   type="text/css"
   id="style1">
	.st0{fill:#D3D0D8;}
	.st1{display:none;}
	.st2{display:inline;}
	.st3{fill:#FFFFFF;}
</style>
<ellipse
   style="enable-background:new 0 0 1000 1000;fill:#ffffff;stroke-width:2.99572"
   id="path16"
   cx="498.29382"
   cy="501.07245"
   rx="477.91754"
   ry="478.84375" /><g
   id="Inverted">
	<g
   id="g5">
		<path
   class="st0"
   d="M564.8,159c0-0.1-0.1-0.1-0.1-0.2c-0.3-0.4-0.6-0.9-0.9-1.6C564.2,157.8,564.5,158.4,564.8,159z"
   id="path1"
   style="fill:#241f1c" />
		<path
   class="st0"
   d="M946.9,661.2C950.5,666,950.5,666,946.9,661.2L946.9,661.2z"
   id="path2"
   style="fill:#241f1c" />
		<path
   class="st0"
   d="M 500.5,2.3 C 225.4,2.3 2.3,225.4 2.3,500.5 2.3,775.6 225.4,998.7 500.5,998.7 775.6,998.7 998.7,775.6 998.7,500.5 998.7,225.4 775.6,2.3 500.5,2.3 Z M 266.3,334.2 c -0.2,-7.8 -0.4,-13.5 2,-20.5 1,-2.8 3.6,-5.5 5.2,-9.1 v 0.1 c 1.6,-3.8 1.4,-10.7 5.6,-11.9 2.6,-0.7 4.2,2 5.2,4.3 0.2,0.5 2,5.3 2,7.4 0,2.1 -1,4.8 -1.6,7.4 -1.3,6.7 -3.3,14.6 -4,22.6 -0.6,7 -1.1,15 -0.4,23.1 0.2,2.1 1,4.3 1.2,6.5 0.5,6 -0.6,12.1 0,17.9 0.3,3.8 2.3,7.3 2.8,11.3 0.8,6.2 -0.9,13.6 -0.4,20.5 0.2,3.9 0.4,8.1 0.8,11.8 0.2,2.1 1.2,4.2 1.2,5.7 0,1.4 -0.8,2.3 -1.2,3.9 -0.4,1.7 0,3.2 -0.4,4.3 -1,3 -2.8,4.6 -4.4,4.8 -4.4,0.4 -7.3,-7.9 -8,-13.9 -0.3,-2.7 0.3,-6.1 0,-9.1 -0.3,-3.1 -1.7,-6.5 -2,-10 -0.5,-5.4 0.3,-10.9 -0.4,-15.3 -0.4,-2.8 -1.8,-5 -2,-7 -0.4,-2.7 0.2,-6.1 0,-8.7 -0.2,-2.6 -1.2,-5.3 -1.6,-8.7 -1.1,-9.8 0.7,-25.2 0.4,-37.4 z m -92,63.2 c 1,-1.6 7.1,-4 9.1,-5.3 0.2,-0.2 0.5,-0.3 0.7,-0.4 6.6,-1.4 6.3,6.2 6,17 -0.2,7 -1.8,15.2 -2,20.9 -0.1,2.5 0.6,5.1 0.8,7.8 0.1,2.8 -0.2,5.8 0,8.7 0.3,3.7 1.4,8.5 1.6,11.8 0.2,3.2 -0.3,7 0,9.1 0.3,2.2 1.6,3 2.4,5.7 0.8,2.7 0.8,6.4 1.6,10 1,4.7 3.3,9.5 4,15.3 0.2,1.9 -0.2,4.5 0,6.5 0.2,2 0.9,3.5 0.8,5.2 -0.2,3.4 -2.8,6.6 -3.6,10.9 -1.1,5.4 0.1,12.8 -6.4,12.2 -3.2,-0.3 -2.7,-1.9 -4,-4.8 -0.8,-1.9 -2.4,-4.3 -2.8,-6.1 -0.9,-4.3 -0.4,-9.9 -1.2,-15.3 -0.7,-4.5 -2,-9.4 -2.4,-13.9 -0.6,-7.5 0.3,-15.2 -0.8,-23.1 -0.2,-2 -1.3,-4 -1.6,-6.1 -0.6,-5.7 -0.1,-12.7 -0.8,-19.2 -0.5,-4.6 -1.9,-12.8 -1.2,-19.2 0.3,-3 1.5,-5.9 1.2,-8.7 -0.3,-2.8 -2.4,-5.5 -2.8,-8.7 -0.4,-3.2 0.4,-8.7 1.4,-10.3 z M 106,492.5 c 0.4,-0.1 0.4,0.2 0.4,0.5 2.9,1 4.1,5 6,8.3 0.5,0.9 1.2,1.2 1.6,2.2 1.8,4 3.7,7.2 5.6,12.2 0.7,1.9 1.9,3.5 2.4,5.2 1.3,4.2 1.5,9.7 2.4,14.8 0.5,2.9 1.8,5.5 2.4,8.3 1.8,8.7 2.2,18 4.4,26.1 0.6,2.1 1.6,4.5 1.2,7.4 -0.4,2.9 -3,5.6 -4,8.7 -0.6,2.2 -0.1,4.8 -0.8,6.5 -2.5,6.4 -10.3,4.3 -13.2,-0.9 -0.4,-6.7 0.6,-13.9 0,-20.5 -0.3,-3.2 -1.4,-6.4 -1.6,-9.6 -0.1,-2.1 0.4,-3.9 0,-6.5 -0.4,-2.6 -2.6,-5.4 -3.2,-10 -0.6,-4.6 0.5,-10.4 0,-13.9 -0.5,-3.5 -2,-7 -3.2,-10.4 -1.2,-3.4 -3.2,-6.4 -4,-9.1 -0.3,-1.2 -0.1,-2.3 -0.4,-4.3 -0.6,-4.9 -1.6,-13.6 4,-15 z M 369.31432,813.19975 C 309.61102,775.32113 201.54365,726.77497 142.64259,712 129.64259,709.7 88,709.1 75,707.1 l -1.8,-0.3 h -0.3 c -0.2,0 -0.3,-0.1 -0.5,-0.1 -2.3,-0.6 -4,-1.8 -4.7,-3.4 -1.4,-3.4 -0.7,-2.5 1.1,-5.7 2.8,-5.1 8.7,-11.7 12.1,-15 3.4,-3.3 6.4,-4.4 9.4,-7.9 3.1,-3.5 5.3,-6.9 8.3,-10 13.4,-13.6 23.8,-24.7 36.2,-34.7 9.8,-8.1 20.5,-15.2 29.8,-22.9 3.3,-2.6 6.2,-5.8 9.4,-8.5 6.6,-5.4 13.3,-10.2 20.4,-14.3 7.5,-4.5 12.3,-12.4 18.7,-17.1 2.8,-2 5.8,-3.1 8.3,-5 10.2,-8 19.8,-17.1 28.7,-27.2 2.3,-2.5 4,-6.1 6.1,-8.5 2,-2.4 4.9,-4.1 7.2,-6.5 2.4,-2.4 4.4,-5.2 6.7,-7.9 8.8,-10.2 17.7,-19.7 26.5,-30 5.4,-6.4 11.6,-12.7 17.1,-17.9 3.3,-3.2 7.8,-7.2 10.5,-10.7 3.8,-4.7 5.3,-10.6 9.4,-16.4 4.1,-5.8 10.1,-9.7 14.4,-15.7 2.2,-3.2 3.7,-6.3 6.1,-9.3 2.4,-3 4.7,-5.1 7.2,-7.9 4.5,-5.1 8.4,-11.9 12.6,-17.9 8.7,-12.4 16.8,-24.7 25.9,-35.7 4.7,-5.7 8.5,-11.5 12.6,-17.9 8.2,-12.5 18.2,-22.6 26.5,-35 8.2,-12.4 15,-26.5 22,-40 3.5,-6.8 7.8,-12.4 11.6,-19.3 3.7,-6.9 7,-14.1 11,-20.7 1.9,-3.2 4.2,-5.8 6.1,-9.3 1.7,-3.5 2.9,-7.3 5,-10.7 2.9,-5.1 6.3,-10 8.3,-15 0.8,-2 0.3,-3.5 1.6,-7.1 1.2,-3.6 3.6,-6.5 5.5,-10 1.7,-3.5 3.2,-7.3 5,-10.7 1.6,-3.1 3.4,-6 5.2,-8.9 -0.1,-1.6 -0.3,-3.3 -0.3,-4.9 -0.2,-8.6 -0.3,-17.3 -0.3,-25.9 0.2,-21.8 0.9,-43.4 3.2,-65.1 0.1,-1.1 1.2,-1.2 1.7,-0.1 4.8,15.6 9.6,31.2 15.3,46.5 9.94951,11.6 54.15051,52.03662 75.21039,75.45778 36.07375,41.13423 84.57223,93.18916 119.92072,154.8514 C 995.08196,718.3861 840.65999,965.8588 369.31432,813.19975 Z"
   id="path3"
   sodipodi:nodetypes="sssssccccccsccccccccsccccccccsccsccccccccsccssccccccccccssssccccccccscccccssssccsccccscccscccccccccccccccscsccccccccccscccccccccccc"
   style="fill:#241f1c" />
		<path
   class="st0"
   d="m 510.1,219.4 c -3.3,7.2 -8.7,13.7 -12.1,19.3 -1.5,2.4 -2,5 -3.3,7.9 -2.3,4.7 -5.6,8.2 -8.3,12.8 -2.6,4.6 -3.7,10.7 -6.1,15.7 -1.8,3.5 -3.8,6.9 -6.1,10 -2.1,3.1 -4.2,6.4 -6.1,10 -1.8,3.5 -4.4,5.9 -6.6,9.3 -2,3.4 -3.4,7.6 -5.5,10.7 -4.2,6.6 -7.9,13.2 -12.6,19.3 -2.3,2.9 -4.5,6 -6.6,9.3 -2.1,3.5 -3.3,8.4 -5,11.4 -1.7,3 -4.5,4.8 -6.6,7.9 -2,3.2 -2.3,7.6 -4.4,10.7 -2.1,3.2 -6.6,5.8 -7.8,7.9 -1.2,2 -1.6,5 -2.7,7.1 -1.1,2.1 -2.6,3.6 -3.8,5.7 -5.4,8.9 -9.7,17.7 -18.2,22.1 -1.2,4.6 -4.3,7.8 -6.7,11.4 -2.3,3.6 -4,8 -6.6,11.4 -7.6,10.1 -17.2,18.1 -24.9,28.6 -2.5,3.4 -4.4,8.1 -7.2,11.4 -5.3,6.6 -12.3,11.8 -18.7,17.9 -9.1,8.7 -17.3,20.6 -25.4,30 -3,3.5 -6.2,6.2 -9.4,9.3 -6.5,6.2 -12,13.7 -18.2,19.3 -4.5,4.1 -9.9,7 -14.4,11.4 -6.2,6.1 -10.9,14.7 -17.1,20 -4.7,4 -10.7,6.5 -15.5,10.7 -4.8,4.2 -9.7,7.7 -14.4,12.2 -6.1,6 -11.9,12.9 -18.7,17.1 -0.7,0.5 -1,1.7 -1.6,2.2 -5.3,4.2 -10.9,6.6 -15.5,10.7 -2.2,2 -4.3,4.9 -6.6,7.1 -2.3,2.2 -4.7,3.6 -7.2,5.7 -2.5,2.1 -4.7,4.7 -7.2,6.5 -5.1,3.8 -9.6,7.5 -14.9,11.4 -5.3,3.9 -8.9,9.9 -13.9,13.6 -1.4,1.1 -3.2,1.6 -5,2.8 -8.3,6 -20.6,10.2 -30.3,15 h -0.1 c 10.7,0.1 21.4,0.4 32.1,-0.2 15.7,-0.8 31.2,0.2 46.8,0.9 30.8,1.3 107.72945,14.84039 138.62945,15.54039 C 686.84719,865.55266 941.48996,688.11918 620.68951,285.90821 566.10409,239.02742 531.1,224.1 528.6,206.2 c -1,-7.3 -1.7,-14.6 -2.6,-21.9 -0.1,-0.5 -0.1,-1.1 -0.2,-1.6 -3.4,7 -7,13.8 -10.2,20.6 -1.8,5.4 -3.2,11 -5.5,16.1 z M 302.2,681.9 c -10,-0.1 -16.7,2 -24.7,0.5 -3.7,-0.8 -7.9,-2.4 -11.5,-3.5 -3.6,-1.1 -7.4,-1.7 -11.1,-2.6 -5.5,-1.5 -10.3,-2.3 -17.1,-3.9 -1.8,-0.5 -3.8,-1.4 -5.6,-1.8 -5,-0.9 -10.4,-0.3 -12.7,-3.9 -1.8,-2.8 -0.6,-6.6 0.4,-9.6 1.9,-5.4 3.8,-11.8 11.5,-10.5 4.3,0.7 9,3.1 13.2,5.2 4.5,2.2 9.1,3.6 12.7,5.8 6.1,0.6 12.1,2.5 18.3,3.5 6.2,1 13.3,1.2 19.5,2.2 2.2,0.3 5.1,1.6 7.6,2.2 2.4,0.6 5.5,0.8 7.6,1.8 2.1,1 3.7,2.6 6.4,4.3 2.6,1.8 5.1,2.6 5.2,5.2 0.1,7.2 -12.2,5.1 -19.7,5.1 z m 117.2,-80 c -2.4,1.4 -5,0.8 -7.9,1.3 -3,0.6 -5.5,2.3 -7.6,2.6 -5.5,0.8 -11,-0.4 -16.4,0.5 -4.6,0.7 -9.1,2.5 -13.5,3 -3.6,0.4 -6.5,-0.2 -10,0.9 -4.7,1.4 -10.3,4.7 -16.7,7 -1.8,0.7 -4.8,1.1 -7.2,1.8 -2.4,0.7 -8.9,3.4 -11.5,0.5 -3.5,-3.8 -0.3,-16.5 2.4,-19.6 2.7,-3.1 7.2,-2.4 12.3,-3.5 2.1,-0.5 4.3,-2.1 6.8,-2.6 6.2,-1.3 14.3,-0.2 21.5,-1.3 1.6,-0.3 3.1,-1.2 4.8,-1.3 1.7,-0.1 2.9,0.6 4.8,0.5 1.9,-0.1 3.7,-1.1 5.6,-1.3 2.6,-0.3 5.2,0.2 7.6,0 5.3,-0.5 9.9,-3.2 14.3,-3.5 3.5,-0.2 9.6,0.8 12.7,0.8 3.7,4.1 2.7,11.6 -2,14.2 z m 62.9,-101 c -0.8,0.8 -1.6,1.6 -2.4,2.5 h -0.1 c -0.7,0 -1.3,0.3 -1.6,0.7 -7.1,-0.2 -13.5,4.2 -20.3,4.9 -4.6,0.5 -8.6,0.8 -12,1.8 -3.4,1 -7,3.1 -10,3.9 -3,0.8 -6.5,0.3 -9.6,1.3 -1.5,0.6 -2.8,1.9 -4.4,2.6 -1.6,0.8 -3.4,1.1 -5.2,1.7 -7,2.3 -14.6,5.1 -22.3,6.1 -2.1,0.3 -4.5,0.2 -6.4,0.5 -1.9,0.3 -3.8,2 -5.6,0 -1.2,-2.8 -0.2,-6.4 0.4,-9.1 0.6,-2.8 0.8,-6.4 2.8,-8.3 2,-1.9 6,-2.2 10,-3 5.7,-1.2 10.7,-3.1 15.2,-4.3 5.5,-1.6 11.2,-2.3 15.9,-3.5 3.6,-0.9 7.4,-1.4 10.8,-2.2 3.4,-0.8 6.4,-2.1 10,-3 3.6,-0.9 7.5,-1.1 10.8,-2.2 1.6,-0.5 3,-1.7 4.4,-2.2 4.7,-1.6 12.5,-1.3 17.9,-1.7 v 0 c 0,0 0.2,0.2 0.3,0.2 0.2,0.2 0.4,0.4 0.6,0.7 0.1,0.2 0.3,0.3 0.4,0.5 0,0.1 0.4,0.5 0.1,0.1 0.1,0.2 0.3,0.3 0.4,0.5 0.8,3.7 0.5,7.7 -0.1,11.5 z"
   id="path4"
   sodipodi:nodetypes="cccccccccccscccsccccccccccccsccccsscscccccccccccccccsccccccccsccsccccccccccscscccsscccccccsccssccccsccscccssccsccccccc"
   style="fill:#241f1c" />
		<path
   class="st0"
   d="M565.8,160.7c-0.3-0.6-0.6-1.2-0.9-1.7C565.2,159.9,565.6,160.5,565.8,160.7z"
   id="path5"
   style="fill:#241f1c" />
	</g>
</g>
<g
   id="Design_1_1_"
   class="st1">
	<g
   id="Layer_3_1_"
   class="st2">
		<g
   id="Layer_5_2_">
			<circle
   cx="500.5"
   cy="500.5"
   r="498.2"
   id="circle5" />
		</g>
	</g>
	<g
   id="Delta"
   class="st2">
		<g
   id="g8">
			<g
   id="g7">
				<g
   id="g6">
					<path
   class="st3"
   d="M522.9,49.6c-2.3,21.7-3,43.3-3.2,65.1c0,8.6,0.1,17.3,0.3,25.9c0.2,7.7,1.7,15.2,3,22.6       c1.3,7.1,2.8,14.3,3.6,21.5c0.8,7.3,1.6,14.6,2.6,21.9c2.5,17.9,7.7,35.2,13,52.5c-0.9-3.3-1.9-6.7-2.8-10       c6.8,23.2,16.1,45.1,25.9,67.1c8.9,19.4,18.2,38.6,28,57.5c20.8,38.8,44.2,75.8,69.3,112c27.2,38.4,56.2,75.3,86.9,110.9       c16.6,18.9,33.5,37.4,50.8,55.5c16.8,17.3,33.5,33.7,53.8,46.9c11.5,6.3,21.9,10.9,34.5,14.8c13.7,3.5,29.3,5.5,42.4,0.6       c11.5-4.3,20.5-16.3,22.5-28.8c0.6-4.7,0.7-9.4-0.4-14.2c-1.1-4.4-3.5-7.4-6.3-10.6c-0.1-0.2-0.3-0.4-0.4-0.6       c4.8,6.4,4.4,6-0.9-1.2c-6.5-7.2-18.7-12.7-28.5-12c-4.8,0.3-9.6,0-14.4-0.7c2.7,0.5,5.2,0.8,7.9,1.3       c-8.6-1.4-16.8-4.2-24.8-8.1c2.4,1.2,4.9,2.4,7.4,3.6c-11.9-6-22.9-13.8-32.7-22.8c2.1,1.9,4.2,3.9,6.4,5.8       c-17.3-16.4-33.4-34-49.3-51.7c-15.9-17.8-31.4-36-46.6-54.5c-28.1-35-54.5-71.2-79.1-108.8c-22.6-35.5-43.4-72-62.4-109.6       c-17.5-36.3-32.1-73.8-48.2-110.7c-3.1-7.1-7-13.6-10.5-20.3c-2.2-4.3-4.2-9.2-6.7-13.2c3.5,5.7,1.5,3.4,0.7,0.8       c-0.5-1.4-1.1-2.8-1.6-4.3c-0.9-2.5-1.7-4.8-2.5-7.2c-1.8-5.3-3.5-10.8-5.3-16c-4.3-11.9-10.3-22.9-15.2-34.5       c-5.7-15.3-10.5-30.9-15.3-46.5C524.1,48.4,523,48.5,522.9,49.6L522.9,49.6z"
   id="path6" />
				</g>
			</g>
		</g>
		<path
   class="st3"
   d="M73,706.8c13.7,2.3,27.5,2.8,41.1,5.2c6.7,1.2,13.4,2.6,20.2,3.2c7.3,0.6,14.6,0.9,21.9,1.3    c27.9,1.6,55.8,2.5,83.7,3.3c56.2,1.6,112.4,1.6,168.6,1.8c112.7,0.4,225.3,0.7,338,1c31.1,0.1,62.4,0.3,93.5-0.4    c15.9-0.3,31.7-0.9,47.6-1.9c7.9-0.5,15.9-1,23.8-1.7c3.8-0.3,7.9-0.5,11.7-1.4c3.6-0.8,6.4-3.1,9.5-5.2c2-1.3,1.5-4-0.6-4.8    c-2.8-1.1-5.6-2.5-8.6-3c-3.2-0.5-6.7,0.1-9.9,0.3c-7.3,0.5-14.5,1.2-21.8,1.6c-13.9,0.9-27.8,1.5-41.6,1.8    c-27.9,0.8-55.6,0.8-83.5,0.7c-56.3-0.2-112.6-0.3-168.9-0.5c-112.2-0.3-224.6,0.8-336.8-1.7c-30.9-0.7-61.8-1.8-92.6-3.1    c-15.6-0.7-31.1-1.7-46.8-0.9c-16,0.9-31.8-0.2-47.7,0.2C71.3,702.9,70.6,706.4,73,706.8L73,706.8z"
   id="path8" />
		<path
   class="st3"
   d="M98.8,664.6c-3,3.1-5.2,6.5-8.3,10c-3,3.5-6,4.6-9.4,7.9s-9.3,9.9-12.1,15c-1.8,3.2-2.5,2.3-1.1,5.7    c1.4,3.4,7.3,4.7,13.2,3.6c2.3-0.4,4.9-2.6,8.3-4.3c9.7-4.8,22-9,30.3-15c1.7-1.2,3.5-1.7,5-2.8c5-3.7,8.6-9.7,13.9-13.6    c5.3-3.9,9.8-7.6,14.9-11.4c2.5-1.8,4.7-4.4,7.2-6.5s5-3.5,7.2-5.7c2.2-2.2,4.3-5.1,6.6-7.1c4.5-4.1,10.2-6.5,15.5-10.7    c0.6-0.5,0.9-1.7,1.6-2.2c6.8-4.2,12.6-11.1,18.7-17.1c4.7-4.5,9.6-8,14.4-12.2c4.8-4.2,10.8-6.7,15.5-10.7    c6.2-5.3,10.9-13.9,17.1-20c4.4-4.4,9.8-7.3,14.4-11.4c6.2-5.6,11.7-13.1,18.2-19.3c3.2-3.1,6.4-5.8,9.4-9.3    c8.1-9.4,16.3-21.3,25.4-30c6.4-6.1,13.4-11.3,18.7-17.9c2.7-3.3,4.7-8,7.2-11.4c7.7-10.5,17.3-18.5,24.9-28.6    c2.5-3.4,4.2-7.8,6.6-11.4c2.3-3.6,5.5-6.8,6.7-11.4c8.5-4.4,12.8-13.2,18.2-22.1c1.2-2.1,2.7-3.6,3.8-5.7    c1.1-2.1,1.5-5.1,2.7-7.1c1.2-2.1,5.7-4.7,7.8-7.9c2.1-3.1,2.4-7.5,4.4-10.7c2-3.1,5-4.9,6.6-7.9c1.6-3,2.8-7.9,5-11.4    c2-3.3,4.2-6.4,6.6-9.3c4.8-6.1,8.4-12.7,12.6-19.3c2-3.1,3.4-7.3,5.5-10.7c2.1-3.4,4.8-5.8,6.6-9.3c1.8-3.6,3.9-6.9,6.1-10    c2.2-3.1,4.2-6.5,6.1-10c2.3-5,3.4-11.1,6.1-15.7c2.7-4.6,6-8.1,8.3-12.8c1.3-2.9,1.8-5.5,3.3-7.9c3.4-5.6,8.8-12.1,12.1-19.3    c2.3-5.1,3.7-10.7,6.1-15.7c6.6-13.8,14.4-27.6,19.8-42.8c0.1,0.3,0.2,0.6,0.4,1c0-0.2,0-0.5-0.1-0.7c-1.2-3.8-1.6-8.1-2.4-11.9    c-1.6-5.3-4.1-10.1-7.6-14c-3.4,6.7-7.8,12.6-11.2,19.2c-1.7,3.4-3.2,7.2-5,10.7c-1.8,3.5-4.2,6.4-5.5,10    c-1.3,3.6-0.8,5.1-1.6,7.1c-2,5-5.4,9.9-8.3,15c-2,3.4-3.2,7.2-5,10.7c-1.8,3.5-4.1,6.1-6.1,9.3c-4,6.6-7.3,13.8-11,20.7    c-3.8,6.9-8.1,12.5-11.6,19.3c-7.1,13.5-13.9,27.6-22,40c-8.3,12.4-18.3,22.5-26.5,35c-4.1,6.4-8,12.2-12.6,17.9    c-9.1,11-17.2,23.3-25.9,35.7c-4.2,6-8.1,12.8-12.6,17.9c-2.5,2.8-4.9,4.9-7.2,7.9c-2.3,3-3.8,6.1-6.1,9.3    c-4.2,6-10.2,9.9-14.4,15.7c-4.1,5.8-5.6,11.7-9.4,16.4c-2.7,3.5-7.2,7.5-10.5,10.7c-5.5,5.2-11.7,11.5-17.1,17.9    c-8.8,10.3-17.7,19.8-26.5,30c-2.2,2.7-4.2,5.5-6.7,7.9c-2.3,2.4-5.2,4.1-7.2,6.5c-2,2.4-3.7,6-6.1,8.5    c-8.9,10.1-18.5,19.2-28.7,27.2c-2.5,1.9-5.5,3-8.3,5c-6.4,4.7-11.2,12.6-18.7,17.1c-7.1,4.1-13.9,8.9-20.4,14.3    c-3.2,2.7-6.1,5.9-9.4,8.5c-9.3,7.7-20,14.8-29.8,22.9C122.6,639.9,112.2,651,98.8,664.6z"
   id="path9" />
	</g>
	<g
   id="Branches"
   class="st2">
		<path
   class="st3"
   d="M232.1,670.5c1.8,0.4,3.7,1.3,5.6,1.8c6.8,1.6,11.7,2.5,17.1,3.9c3.7,1,7.5,1.5,11.1,2.6    c3.6,1.1,7.8,2.7,11.5,3.5c8,1.6,14.7-0.5,24.7-0.5c7.5,0.1,19.8,2.1,19.5-5.2c-0.1-2.6-2.5-3.4-5.2-5.2s-4.3-3.4-6.4-4.3    c-2.1-1-5.1-1.2-7.6-1.8c-2.4-0.6-5.4-1.9-7.6-2.2c-6.3-1-13.3-1.2-19.5-2.2c-6.2-1-12.2-2.9-18.3-3.5c-3.6-2.2-8.2-3.6-12.7-5.8    c-4.2-2.1-8.9-4.5-13.2-5.2c-7.7-1.4-9.7,5.1-11.5,10.5c-1.1,3-2.2,6.8-0.4,9.6C221.7,670.2,227.1,669.6,232.1,670.5z"
   id="path10" />
		<path
   class="st3"
   d="M340.1,619c2.4-0.7,5.4-1.1,7.2-1.8c6.5-2.3,12.1-5.6,16.7-7c3.5-1,6.4-0.5,10-0.9c4.5-0.5,9-2.4,13.5-3    c5.4-0.8,10.9,0.4,16.4-0.5c2.1-0.3,4.6-2.1,7.6-2.6c3-0.6,5.5,0.1,7.9-1.3c4.7-2.6,5.8-10.2,2-14.4c-3.1-0.1-9.2-1-12.7-0.8    c-4.4,0.3-9,3-14.3,3.5c-2.4,0.2-5-0.3-7.6,0c-1.8,0.2-3.7,1.2-5.6,1.3c-1.9,0.1-3.1-0.6-4.8-0.5s-3.2,1.1-4.8,1.3    c-7.2,1.2-15.3,0.1-21.5,1.3c-2.4,0.5-4.7,2.2-6.8,2.6c-5.2,1.1-9.6,0.4-12.3,3.5c-2.7,3.1-5.9,15.8-2.4,19.6    C331.2,622.3,337.7,619.7,340.1,619z"
   id="path11" />
		<path
   class="st3"
   d="M265.9,371.7c0.4,3.4,1.4,6.1,1.6,8.7s-0.4,6,0,8.7c0.2,2,1.6,4.2,2,7c0.7,4.4,0,9.9,0.4,15.3    c0.3,3.5,1.7,6.9,2,10c0.3,3.1-0.3,6.4,0,9.1c0.6,6.1,3.6,14.3,8,13.9c1.6-0.2,3.4-1.8,4.4-4.8c0.4-1.1,0-2.7,0.4-4.3    c0.4-1.7,1.2-2.5,1.2-3.9s-1-3.6-1.2-5.7c-0.4-3.6-0.6-7.8-0.8-11.8c-0.5-6.8,1.2-14.3,0.4-20.5c-0.5-4-2.4-7.5-2.8-11.3    c-0.6-5.8,0.5-11.9,0-17.9c-0.2-2.2-1-4.4-1.2-6.5c-0.6-8.1-0.2-16.1,0.4-23.1c0.6-8.1,2.6-15.9,4-22.6c0.6-2.7,1.6-5.3,1.6-7.4    s-1.8-6.9-2-7.4c-1-2.3-2.5-5.1-5.2-4.3c-4.2,1.2-4.1,8.1-5.6,11.9v-0.1h0c-1.6,3.7-4.2,6.4-5.2,9.1c-2.4,7-2.2,12.7-2,20.5    C266.6,346.4,264.8,361.8,265.9,371.7z"
   id="path12" />
		<path
   class="st3"
   d="M479.8,503.4C479.8,503.4,479.9,503.4,479.8,503.4c0.8-0.8,1.6-1.6,2.4-2.5c0.7-3.8,1-7.8,0.1-11.5    c-0.1-0.1-0.3-0.3-0.4-0.5c0.2,0.3-0.1-0.1-0.1-0.1c-0.1-0.2-0.2-0.3-0.4-0.5c-0.2-0.2-0.4-0.4-0.6-0.7c0,0-0.2-0.2-0.3-0.2    c0,0,0,0,0,0c-5.3,0.4-13.1,0.1-17.9,1.7c-1.4,0.5-2.8,1.7-4.4,2.2c-3.3,1.1-7.2,1.3-10.8,2.2s-6.7,2.3-10,3    c-3.3,0.8-7.2,1.3-10.8,2.2c-4.7,1.2-10.4,1.9-15.9,3.5c-4.5,1.3-9.4,3.2-15.2,4.3c-4,0.8-8,1.1-10,3c-2,1.9-2.1,5.5-2.8,8.3    c-0.6,2.8-1.6,6.4-0.4,9.1c1.8,2,3.7,0.3,5.6,0s4.2-0.2,6.4-0.5c7.7-1,15.3-3.8,22.3-6.1c1.8-0.6,3.6-1,5.2-1.7s2.9-2.1,4.4-2.6    c3-1.1,6.6-0.5,9.6-1.3c3-0.8,6.7-2.9,10-3.9c3.3-1,7.3-1.3,12-1.8c6.8-0.7,13.2-5.2,20.3-4.9    C478.6,503.7,479.1,503.4,479.8,503.4z"
   id="path13" />
		<path
   class="st3"
   d="M102.5,511.6c0.7,2.8,2.7,5.8,4,9.1c1.2,3.4,2.8,6.9,3.2,10.4s-0.6,9.3,0,13.9s2.8,7.4,3.2,10    c0.4,2.6-0.1,4.4,0,6.5c0.2,3.2,1.3,6.4,1.6,9.6c0.6,6.6-0.4,13.7,0,20.5c2.9,5.3,10.7,7.3,13.2,0.9c0.7-1.8,0.1-4.3,0.8-6.5    c1-3.1,3.6-5.8,4-8.7c0.4-2.9-0.6-5.4-1.2-7.4c-2.2-8.1-2.6-17.4-4.4-26.1c-0.6-2.8-1.9-5.4-2.4-8.3c-0.9-5.2-1.1-10.6-2.4-14.8    c-0.5-1.7-1.7-3.3-2.4-5.2c-1.8-5-3.7-8.1-5.6-12.2c-0.4-1-1.1-1.3-1.6-2.2c-1.9-3.3-3.1-7.3-6-8.3c0-0.3,0-0.5-0.4-0.5    c-5.6,1.5-4.7,10.2-4,14.8C102.3,509.4,102.2,510.4,102.5,511.6z"
   id="path14" />
		<path
   class="st3"
   d="M175.8,416.6c0.3,2.8-0.9,5.7-1.2,8.7c-0.7,6.3,0.7,14.6,1.2,19.2c0.7,6.5,0.1,13.4,0.8,19.2    c0.2,2.1,1.3,4.1,1.6,6.1c1.1,7.9,0.2,15.6,0.8,23.1c0.4,4.5,1.7,9.4,2.4,13.9c0.8,5.4,0.3,10.9,1.2,15.3c0.4,1.8,2,4.2,2.8,6.1    c1.2,2.9,0.8,4.5,4,4.8c6.5,0.7,5.3-6.8,6.4-12.2c0.8-4.3,3.4-7.5,3.6-10.9c0.1-1.7-0.6-3.2-0.8-5.2c-0.2-2,0.2-4.6,0-6.5    c-0.6-5.8-3-10.6-4-15.3c-0.8-3.6-0.8-7.3-1.6-10c-0.8-2.7-2.1-3.5-2.4-5.7s0.2-5.9,0-9.1c-0.2-3.2-1.3-8.1-1.6-11.8    c-0.2-2.9,0.1-5.9,0-8.7c-0.1-2.8-0.9-5.4-0.8-7.8c0.1-5.7,1.8-13.9,2-20.9c0.4-10.8,0.6-18.4-6-17c-0.3,0.1-0.5,0.2-0.7,0.4    c-2.1,1.2-8.2,3.7-9.1,5.3c-1,1.6-1.6,7.2-1.2,10.5S175.6,413.7,175.8,416.6z"
   id="path15" />
	</g>
</g>
</svg>
